<svg xmlns="http://www.w3.org/2000/svg" viewBox="0 0 74 74"><defs><style>.cls-1{fill:#efc75e;}.cls-2{fill:#e7bf55;}.cls-3{fill:#dbb551;}.cls-4{fill:#f7e3af;}.cls-5{fill:#f1d999;}.cls-6{fill:#f2f2f2;}</style></defs><title>shipping</title><g id="Layer_2" data-name="Layer 2"><g id="Layer_1-2" data-name="Layer 1"><path class="cls-1" d="M0,18.31,37,0,74,18.31v2.42L37,39,0,20.79Z"/><path class="cls-2" d="M0,18.41,37,36.72,74,18.41V55.09L36.88,73.4,0,55.09Z"/><path class="cls-3" d="M37,73.94V37.18L.23,18.91H0V55.62L36.88,74Z"/><path class="cls-4" d="M15,10.85,52.09,29.23l7.54-3.7L22.43,7.15Z"/><path class="cls-5" d="M52,29l8-3.92V37.37L57.85,37l-2.28,2.76L52,39.52Z"/><path class="cls-6" d="M29.68,51.4,17.26,45.21c-.69-.34-1.26.06-1.26.92v8.3a2.63,2.63,0,0,0,1.26,2.18l12.47,6.18c.69.34,1.26-.06,1.26-.92V53.51A2.72,2.72,0,0,0,29.68,51.4ZM26.5,58.25l-8-4a1.39,1.39,0,0,1-.64-1.16c0-.46.29-.69.64-.52l8,4a1.39,1.39,0,0,1,.64,1.16C27.13,58.19,26.84,58.42,26.5,58.25Zm1.16-2.89-9.17-4.62a1.39,1.39,0,0,1-.64-1.16c0-.46.29-.69.64-.52l9.17,4.62a1.39,1.39,0,0,1,.64,1.16C28.29,55.36,28,55.53,27.66,55.36Z"/></g></g></svg>