<svg xmlns="http://www.w3.org/2000/svg" xmlns:xlink="http://www.w3.org/1999/xlink" viewBox="0 0 50.73 24"><defs><style>.cls-1{fill:#fff;}.cls-10,.cls-2,.cls-3,.cls-4,.cls-5,.cls-6,.cls-7,.cls-8,.cls-9{fill-rule:evenodd;}.cls-2{fill:url(#linear-gradient);}.cls-3{fill:url(#linear-gradient-2);}.cls-4{fill:url(#linear-gradient-3);}.cls-5{fill:url(#linear-gradient-4);}.cls-6{fill:url(#linear-gradient-5);}.cls-7{fill:url(#linear-gradient-6);}.cls-8{fill:url(#linear-gradient-7);}.cls-9{fill:url(#linear-gradient-8);}.cls-10{fill:url(#linear-gradient-9);}</style><linearGradient id="linear-gradient" x1="-19.32" y1="8.94" x2="75.68" y2="9.28" gradientUnits="userSpaceOnUse"><stop offset="0" stop-color="#40c057"/><stop offset="1" stop-color="#228ae6"/></linearGradient><linearGradient id="linear-gradient-2" x1="-19.31" y1="7.65" x2="75.69" y2="7.98" xlink:href="#linear-gradient"/><linearGradient id="linear-gradient-3" x1="-19.32" y1="8.91" x2="75.68" y2="9.24" xlink:href="#linear-gradient"/><linearGradient id="linear-gradient-4" x1="-19.32" y1="10.12" x2="75.68" y2="10.45" xlink:href="#linear-gradient"/><linearGradient id="linear-gradient-5" x1="-19.35" y1="18.19" x2="75.65" y2="18.53" xlink:href="#linear-gradient"/><linearGradient id="linear-gradient-6" x1="-19.35" y1="18.17" x2="75.65" y2="18.5" xlink:href="#linear-gradient"/><linearGradient id="linear-gradient-7" x1="-19.33" y1="13.57" x2="75.67" y2="13.91" xlink:href="#linear-gradient"/><linearGradient id="linear-gradient-8" x1="-19.34" y1="15.7" x2="75.66" y2="16.04" xlink:href="#linear-gradient"/><linearGradient id="linear-gradient-9" x1="-19.35" y1="16.58" x2="75.65" y2="16.91" xlink:href="#linear-gradient"/></defs><title>Asset 13</title><g id="Layer_2" data-name="Layer 2"><g id="Ebay_Store_Icon" data-name="Ebay Store Icon"><path class="cls-1" d="M41.14,24H1a1,1,0,0,1-1-1V1A1,1,0,0,1,1,0H41.15a1,1,0,0,1,.77.37l8.58,10.51a1,1,0,0,1,0,1.23L41.94,23.6A1,1,0,0,1,41.14,24Z"/><path class="cls-2" d="M8.76,6.56a1.89,1.89,0,0,1,2.08,1.9H6.58a2,2,0,0,1,2.19-1.9Zm.05-1C6.75,5.57,5,6.44,5,9.09c0,2.1,1.16,3.42,3.84,3.42,3.16,0,3.36-2.08,3.36-2.08H10.7a1.84,1.84,0,0,1-1.92,1.12A2.1,2.1,0,0,1,6.54,9.44h5.84V8.67C12.39,7.45,11.62,5.57,8.82,5.57Z"/><path class="cls-3" d="M16.17,6.6A2.26,2.26,0,0,1,18.46,9a2.31,2.31,0,0,1-2.28,2.48,2.29,2.29,0,0,1-2.3-2.47A2.28,2.28,0,0,1,16.17,6.6ZM12.39,3v8.19c0,.46,0,1.12,0,1.12h1.46s.05-.47.05-.9a3.12,3.12,0,0,0,2.68,1.13A3.32,3.32,0,0,0,20,9a3.3,3.3,0,0,0-3.46-3.45,3,3,0,0,0-2.67,1.1V3Z"/><path class="cls-4" d="M25.34,9.2v.43c0,.56-.34,1.94-2.36,1.94-1.11,0-1.58-.55-1.58-1.2,0-1.17,1.6-1.18,3.94-1.18ZM23.64,5.57c-3.11,0-3.31,1.71-3.31,2h1.55s.08-1,1.65-1c1,0,1.81.47,1.81,1.37v.32H23.53c-2.41,0-3.68.71-3.68,2.14s1.18,2.18,2.76,2.18a3.19,3.19,0,0,0,2.86-1.2c0,.48,0,.95,0,.95h1.37s-.05-.58-.05-1V8.12c0-2.11-1.7-2.56-3.2-2.56Z"/><polygon class="cls-5" points="26 5.83 27.74 5.83 30.24 10.85 32.73 5.83 34.3 5.83 29.77 14.76 28.11 14.76 29.42 12.27 26 5.83"/><path class="cls-6" d="M18.84,19.23h.48a.6.6,0,0,0,.25.47.85.85,0,0,0,.46.15h0a.93.93,0,0,0,.48-.13.37.37,0,0,0,.22-.32.3.3,0,0,0-.2-.32,2.82,2.82,0,0,0-.5-.16l-.1,0-.11,0a2.19,2.19,0,0,1-.64-.26.62.62,0,0,1-.26-.64.82.82,0,0,1,.25-.56,1.33,1.33,0,0,1,.73-.26h.2l.21,0a1.11,1.11,0,0,1,.5.22.78.78,0,0,1,.25.61h-.47a.47.47,0,0,0-.2-.34.67.67,0,0,0-.36-.1H20a.93.93,0,0,0-.42.13.33.33,0,0,0-.19.27.29.29,0,0,0,.2.31,3.08,3.08,0,0,0,.51.16l.11,0,.11,0a2.61,2.61,0,0,1,.64.25.59.59,0,0,1,.29.56h0v.07a.82.82,0,0,1-.32.54,1.37,1.37,0,0,1-.85.28H20l-.2,0-.21,0a1.16,1.16,0,0,1-.51-.26.9.9,0,0,1-.23-.71Zm3,.51V17.67h-.39V17.2h.39v-.77h.47v.77h.48v.48h-.48v1.81a.37.37,0,0,0,.08.22.2.2,0,0,0,.14.05h.25v.43h-.33a.78.78,0,0,1-.43-.1.45.45,0,0,1-.19-.35Zm1.29-1a2.19,2.19,0,0,1,.28-1.11,1.11,1.11,0,0,1,1.05-.49h.2a1.31,1.31,0,0,1,.75.42,1.64,1.64,0,0,1,.34,1.17,1.85,1.85,0,0,1,0,.28,1.59,1.59,0,0,1-.09.33,1.49,1.49,0,0,1-.39.54,1.22,1.22,0,0,1-.79.27,1.26,1.26,0,0,1-1-.3,1.47,1.47,0,0,1-.36-1.11Zm.48,0a1.24,1.24,0,0,0,.27.82.73.73,0,0,0,.53.26h0a.79.79,0,0,0,.59-.31,1.13,1.13,0,0,0,.23-.85,1.16,1.16,0,0,0-.27-.79.76.76,0,0,0-.56-.27.75.75,0,0,0-.57.28,1.2,1.2,0,0,0-.24.86Zm2.75,1.38V17.2h.47v.39l0-.05,0-.05a1.09,1.09,0,0,1,.31-.28.88.88,0,0,1,.51-.08v.51a1,1,0,0,0-.68.2.78.78,0,0,0-.23.62v1.64ZM28,18.62a2.12,2.12,0,0,1,.38-1.09,1.12,1.12,0,0,1,1-.41,1,1,0,0,1,.93.39,2,2,0,0,1,.33.86q0,.12,0,.24t0,.24H28.52a1,1,0,0,0,.24.71.68.68,0,0,0,.49.22h0a.88.88,0,0,0,.46-.17.87.87,0,0,0,.31-.42h.48a.92.92,0,0,1-.36.7,1.51,1.51,0,0,1-.85.28,1.25,1.25,0,0,1-.92-.34,1.49,1.49,0,0,1-.38-.7,1.46,1.46,0,0,1,0-.26,1.54,1.54,0,0,1,0-.24Zm.52-.21h1.59a1,1,0,0,0-.26-.67.68.68,0,0,0-.5-.23h0a.77.77,0,0,0-.49.24A1.17,1.17,0,0,0,28.52,18.41Z"/><path class="cls-7" d="M34,15.56h3.14v5.6H34v-5.6Zm2.22,2.29a.47.47,0,1,0,.47.47A.47.47,0,0,0,36.19,17.85Z"/><polygon class="cls-8" points="37.11 12.98 37.11 13.74 34.99 14.55 34.99 13.8 37.11 12.98"/><polygon class="cls-9" points="38.9 12.3 37.11 12.98 37.11 13.74 37.78 13.48 37.78 19.51 38.9 19.08 38.9 12.3"/><polygon class="cls-10" points="36.99 11.99 32.49 13.72 32.49 21.54 33.43 21.17 33.43 15.15 34.43 14.77 34.43 13.41 36.99 12.43 36.99 11.99"/></g></g></svg>