<svg xmlns="http://www.w3.org/2000/svg" viewBox="0 0 50 39.98"><defs><style>.cls-1{fill:#0ca678;}</style></defs><title>Asset 1</title><g id="Layer_2" data-name="Layer 2"><g id="Layer_1-2" data-name="Layer 1"><path class="cls-1" d="M32.64,29.82a3.29,3.29,0,0,0-2.48-3.21l1.75-1.75a3.33,3.33,0,1,0-4.71-4.71l-1.5,1.5a3.32,3.32,0,0,0-5.57-1.5L18,22.24a3.32,3.32,0,0,0-5.57-1.5L6.55,26.64H.83a.83.83,0,0,0,0,1.67H5.27A3.42,3.42,0,0,0,6,31.93a3.33,3.33,0,0,0,3.83.62,3.24,3.24,0,0,0,.89,1.74,3.33,3.33,0,0,0,3.8.63,3.32,3.32,0,0,0,4.71,2.36A3.33,3.33,0,0,0,24.83,39l6.83-6.83A3.31,3.31,0,0,0,32.64,29.82Zm-25.48.93a1.67,1.67,0,0,1,0-2.36l.33-.33,6.15-6.15a1.67,1.67,0,0,1,2.36,0,1.71,1.71,0,0,1,0,2.36L9.51,30.75A1.67,1.67,0,0,1,7.15,30.75Zm4.71,2.36a1.67,1.67,0,0,1,0-2.36l9.43-9.43a1.67,1.67,0,0,1,2.36,0,1.71,1.71,0,0,1,0,2.36L20,27.35,15.4,31.93h0l-1.18,1.18A1.67,1.67,0,0,1,11.87,33.11Zm4.71,2.36a1.67,1.67,0,0,1,0-2.36l4.58-4.58,7.2-7.2a1.67,1.67,0,0,1,2.36,0,1.71,1.71,0,0,1,0,2.36l-3.78,3.78h0l-3.41,3.41-4.59,4.59A1.67,1.67,0,0,1,16.58,35.46Zm5.89,2.85a1.67,1.67,0,0,1-1.18-2.85l.48-.48,6.35-6.35a1.67,1.67,0,0,1,2.35,0,1.71,1.71,0,0,1,0,2.36l-6.83,6.83A1.66,1.66,0,0,1,22.48,38.31Z"/><path class="cls-1" d="M20.83,3.33a.83.83,0,1,0,0-1.67,18.78,18.78,0,0,0-11.69,4,6.29,6.29,0,0,1-1.64,1H.83a.83.83,0,1,0,0,1.67H7.5A5.12,5.12,0,0,0,10.1,7,17.07,17.07,0,0,1,20.83,3.33Z"/><path class="cls-1" d="M46.67,27.48a.83.83,0,0,0,.83.83h1.67a.83.83,0,0,0,0-1.67H47.5A.83.83,0,0,0,46.67,27.48Z"/><path class="cls-1" d="M21.81,5.37c-1.31,2-4.88,8.12-5.05,8.42a1.74,1.74,0,0,0,.11,1.74,5.39,5.39,0,0,0,4,2c1.6,0,2.57-1.12,3.6-2.31.36-.41.73-.84,1.15-1.26l4.17-4.17a5.35,5.35,0,0,1,.62-.57,2.46,2.46,0,0,1,.4,0,20.83,20.83,0,0,1,3.61,3.06l8.36,9.19a2.07,2.07,0,0,1,.59,1.08V30A1.67,1.67,0,1,1,40,30V24.17a3.67,3.67,0,0,0-1.08-2.26l-5.83-5.83a.83.83,0,0,0-1.18,1.18l5.83,5.83a2.07,2.07,0,0,1,.59,1.08V32.5a1.67,1.67,0,1,1-3.33,0V25.83a.83.83,0,1,0-1.67,0V35a1.67,1.67,0,0,1-2.78,1.24.83.83,0,1,0-1.11,1.24A3.32,3.32,0,0,0,35,35.35a3.3,3.3,0,0,0,5-2.5,3.29,3.29,0,0,0,1.7.48A3.34,3.34,0,0,0,45,30V22.5a3.64,3.64,0,0,0-1.05-2.23l-8.36-9.2C32,7.5,31.12,7.5,30.83,7.5c-1.11,0-1.31.14-2.26,1.08l-4.17,4.17c-.47.47-.87.94-1.23,1.35-1,1.14-1.54,1.74-2.34,1.74-1.05,0-2.59-.9-2.61-1.25,0-.06,3.69-6.37,5-8.29a9.39,9.39,0,0,1,8.47-4.63c3.58,0,8.43,2.81,11.63,4.67,2.29,1.33,3.43,2,4.2,2h1.67a.83.83,0,0,0,0-1.67H47.51A18.83,18.83,0,0,1,44.14,4.9C40.57,2.83,35.69,0,31.67,0A11,11,0,0,0,21.81,5.37Z"/></g></g></svg>