<svg xmlns="http://www.w3.org/2000/svg" viewBox="0 0 299.99 299.99"><defs><style>.cls-1{fill:#0ca678;}</style></defs><title>heart-icon</title><g id="Layer_2" data-name="Layer 2"><g id="Layer_1-2" data-name="Layer 1"><path class="cls-1" d="M165.45,108.21,155.66,118a7.79,7.79,0,0,1-7.16,2.1,7.49,7.49,0,0,1-4.17-2.1l-9.78-9.78a33.62,33.62,0,0,0-47.5,0c-12.82,12.82-12.7,33.37.28,47.8,13.23,14.71,49.61,45,62.67,55.79C163.06,201,199.44,170.72,212.68,156c13-14.43,13.1-35,.28-47.81A33.64,33.64,0,0,0,165.45,108.21Z"/><path class="cls-1" d="M150,0A150,150,0,1,0,300,150,150,150,0,0,0,150,0Zm74.24,166.42c-17,18.87-67,59.62-69.17,61.34A7.49,7.49,0,0,1,150,229.5h-.17a7.75,7.75,0,0,1-4.9-1.74c-2.12-1.73-52.19-42.48-69.16-61.34C57.15,145.73,57.27,116,76,97.2a49.2,49.2,0,0,1,69.51,0l4.45,4.45,4.45-4.45a49.21,49.21,0,0,1,69.51,0C242.73,116,242.85,145.73,224.24,166.42Z"/></g></g></svg>