<svg xmlns="http://www.w3.org/2000/svg" xmlns:xlink="http://www.w3.org/1999/xlink" viewBox="0 0 40 20"><defs><style>.cls-1{fill:url(#linear-gradient);}</style><linearGradient id="linear-gradient" x1="-26.83" y1="10" x2="60.83" y2="10" gradientUnits="userSpaceOnUse"><stop offset="0" stop-color="#40c057"/><stop offset="1" stop-color="#228ae6"/></linearGradient></defs><title>Payment-icon_2</title><g id="Layer_2" data-name="Layer 2"><g id="Paypent"><path class="cls-1" d="M20,3c-3.31,0-6,3.13-6,7s2.69,7,6,7,6-3.13,6-7S23.31,3,20,3Zm-.12,5.44a1.6,1.6,0,0,0,.32.4q.21.2.65.55a8.33,8.33,0,0,1,.75.64,3,3,0,0,1,.56.74,1.94,1.94,0,0,1,.24.93,2.32,2.32,0,0,1-.56,1.67,2.67,2.67,0,0,1-1.63.79l-.26,1.45H18.66l.26-1.42a6.66,6.66,0,0,1-1.06-.2,2.18,2.18,0,0,1-.67-.27l.62-1.51a2.69,2.69,0,0,0,.71.37,2.34,2.34,0,0,0,.81.16q1.16,0,1.15-.75a1,1,0,0,0-.1-.45,1.57,1.57,0,0,0-.32-.43,5.6,5.6,0,0,0-.61-.51A3,3,0,0,1,18,8.22a2.17,2.17,0,0,1,.26-1.06A2.25,2.25,0,0,1,19,6.37a3.12,3.12,0,0,1,1.1-.45l.24-1.41h1.29L21.4,5.84a3.51,3.51,0,0,1,.84.17,2.4,2.4,0,0,1,.57.27l-.58,1.51a1.56,1.56,0,0,0-.63-.33,2.75,2.75,0,0,0-.83-.14,1.26,1.26,0,0,0-.74.19.57.57,0,0,0-.26.48A.92.92,0,0,0,19.88,8.44Z"/><path class="cls-1" d="M39,0H1A1,1,0,0,0,0,1V19a1,1,0,0,0,1,1H39a1,1,0,0,0,1-1V1A1,1,0,0,0,39,0ZM38,13a4.08,4.08,0,0,0-.5,0A4.49,4.49,0,0,0,33,17.5a4.07,4.07,0,0,0,0,.5H7a4.07,4.07,0,0,0,0-.5A4.49,4.49,0,0,0,2.5,13,4.08,4.08,0,0,0,2,13V7a4.07,4.07,0,0,0,.5,0A4.49,4.49,0,0,0,7,2.5,4.07,4.07,0,0,0,7,2H33a4.07,4.07,0,0,0,0,.5A4.49,4.49,0,0,0,37.5,7,4.07,4.07,0,0,0,38,7Z"/></g></g></svg>