<svg xmlns="http://www.w3.org/2000/svg" xmlns:xlink="http://www.w3.org/1999/xlink" viewBox="0 0 20 20"><defs><style>.cls-1{fill:url(#linear-gradient);}.cls-2{fill:url(#linear-gradient-2);}.cls-3{fill:url(#linear-gradient-3);}.cls-4{fill:url(#linear-gradient-4);}</style><linearGradient id="linear-gradient" x1="-13.78" y1="7.51" x2="31.97" y2="7.09" gradientUnits="userSpaceOnUse"><stop offset="0" stop-color="#40c057"/><stop offset="1" stop-color="#228ae6"/></linearGradient><linearGradient id="linear-gradient-2" x1="-13.73" y1="12.93" x2="32.02" y2="12.51" xlink:href="#linear-gradient"/><linearGradient id="linear-gradient-3" x1="-13.76" y1="9.77" x2="31.99" y2="9.35" xlink:href="#linear-gradient"/><linearGradient id="linear-gradient-4" x1="-13.76" y1="9.81" x2="31.99" y2="9.39" xlink:href="#linear-gradient"/></defs><title>Returns-icon</title><g id="Layer_2" data-name="Layer 2"><g id="Paypent"><path class="cls-1" d="M18.93,14.5l.26-1.05-2.41.6a7.88,7.88,0,0,0-12-10l.72.72-4,1,1-4,.77.77A10,10,0,0,1,18.93,14.5Z"/><path class="cls-2" d="M18.43,14.21l-1,4-.77-.76A10,10,0,0,1,1.07,5.5L.81,6.55,3.22,6a7.88,7.88,0,0,0,12,10l-.72-.72Z"/><path class="cls-3" d="M10.09,8.53a1.52,1.52,0,0,1-.45.64,1.57,1.57,0,0,1-.47.26.71.71,0,0,1,.52.72,3.24,3.24,0,0,1-.12.75c-.06.27-.16.6-.22.78-.27.79-1,1.18-2.12,1.18-1.32,0-1.93-.37-1.93-1.18a2.58,2.58,0,0,1,.08-.62l.1-.41H7.1L7,11.19a1.12,1.12,0,0,0,0,.27c0,.21.13.31.4.31s.41-.13.51-.42a4.53,4.53,0,0,0,.19-1c0-.23-.09-.29-.45-.29H7L7.3,8.86h.58c.33,0,.48-.05.56-.23A4.28,4.28,0,0,0,8.59,8a2,2,0,0,0,0-.31c0-.21-.14-.32-.4-.32a.49.49,0,0,0-.3.08.38.38,0,0,0-.11.13A1.21,1.21,0,0,0,7.72,8l-.08.33H6.08l.1-.4a1.82,1.82,0,0,1,2.1-1.61c1.37,0,2,.41,2,1.29A2.92,2.92,0,0,1,10.09,8.53Z"/><path class="cls-4" d="M14.87,8.28l-.64,2.79A1.91,1.91,0,0,1,12,12.85c-1.26,0-2-.46-2-1.28a3.44,3.44,0,0,1,.13-.87L10.78,8a2,2,0,0,1,.67-1.26A2.43,2.43,0,0,1,13,6.28c1.22,0,1.94.48,1.94,1.29A3.37,3.37,0,0,1,14.87,8.28ZM13,7.3c-.31,0-.43.13-.52.53l-.79,3.44a1.22,1.22,0,0,0,0,.29c0,.19.15.31.41.31s.44-.13.53-.53l.79-3.43a1.22,1.22,0,0,0,0-.3C13.38,7.42,13.22,7.3,13,7.3Z"/></g></g></svg>