<svg xmlns="http://www.w3.org/2000/svg" xmlns:xlink="http://www.w3.org/1999/xlink" viewBox="0 0 168.12 37"><defs><style>.cls-1{fill:url(#linear-gradient);}.cls-2{fill:url(#linear-gradient-2);}.cls-3{fill:url(#linear-gradient-3);}.cls-4{fill:url(#linear-gradient-4);}.cls-5{fill:url(#linear-gradient-5);}.cls-6{fill:none;}.cls-7{fill:#fff;}.cls-8{fill:url(#linear-gradient-6);}.cls-9{fill:url(#linear-gradient-7);}.cls-10{fill:url(#linear-gradient-8);}</style><linearGradient id="linear-gradient" x1="4.87" y1="33.27" x2="21.81" y2="-21.78" gradientUnits="userSpaceOnUse"><stop offset="0" stop-color="#212529"/><stop offset="1" stop-color="#495057"/></linearGradient><linearGradient id="linear-gradient-2" x1="25.72" y1="39.68" x2="42.65" y2="-15.37" xlink:href="#linear-gradient"/><linearGradient id="linear-gradient-3" x1="48.99" y1="46.84" x2="65.92" y2="-8.22" xlink:href="#linear-gradient"/><linearGradient id="linear-gradient-4" x1="63.35" y1="51.26" x2="80.28" y2="-3.8" xlink:href="#linear-gradient"/><linearGradient id="linear-gradient-5" x1="76.09" y1="55.18" x2="93.02" y2="0.12" xlink:href="#linear-gradient"/><linearGradient id="linear-gradient-6" x1="129.06" y1="48.52" x2="127.03" y2="-5.45" gradientUnits="userSpaceOnUse"><stop offset="0" stop-color="#2f9e44"/><stop offset="1" stop-color="#51cf66"/></linearGradient><linearGradient id="linear-gradient-7" x1="155.09" y1="47.54" x2="153.06" y2="-6.42" xlink:href="#linear-gradient-6"/><linearGradient id="linear-gradient-8" x1="131.01" y1="48.45" x2="128.98" y2="-5.52" xlink:href="#linear-gradient-6"/></defs><title>Asset 20</title><g id="Layer_2" data-name="Layer 2"><g id="Typography_-_Acumin_Pro" data-name="Typography - Acumin Pro"><path class="cls-1" d="M9.79,12.62a8.68,8.68,0,0,0-3.32.59,7.22,7.22,0,0,0-2.4,1.56A6.61,6.61,0,0,0,2.59,17a6.81,6.81,0,0,0-.5,2.57,4.33,4.33,0,0,0,.55,2.34A4.7,4.7,0,0,0,4,23.32a7.49,7.49,0,0,0,1.8.87q1,.32,1.8.66a5.37,5.37,0,0,1,1.38.8,1.58,1.58,0,0,1,.55,1.29,2.18,2.18,0,0,1-.18.87,2,2,0,0,1-.55.73A2.75,2.75,0,0,1,7.9,29a3.93,3.93,0,0,1-1.24.18A4,4,0,0,1,5.14,29a5.87,5.87,0,0,1-1-.51L3.38,28a1.3,1.3,0,0,0-.76-.24,1.51,1.51,0,0,0-.78.19,1.69,1.69,0,0,0-.55.53L0,30.41a5.47,5.47,0,0,0,1.07,1,8,8,0,0,0,1.43.77,8.86,8.86,0,0,0,1.67.51A9.08,9.08,0,0,0,6,32.82a9.64,9.64,0,0,0,3.4-.57A8,8,0,0,0,12,30.71a6.63,6.63,0,0,0,1.64-2.26,6.71,6.71,0,0,0,.57-2.74,4.28,4.28,0,0,0-.55-2.28A4.79,4.79,0,0,0,12.26,22,8.43,8.43,0,0,0,10.45,21q-1-.36-1.8-.71a5.68,5.68,0,0,1-1.39-.8,1.45,1.45,0,0,1-.55-1.19,1.94,1.94,0,0,1,.69-1.52,3.15,3.15,0,0,1,2.12-.61,4.12,4.12,0,0,1,1.32.19,8,8,0,0,1,1,.41l.79.41a1.48,1.48,0,0,0,.71.19,1,1,0,0,0,.54-.14,1.76,1.76,0,0,0,.45-.47l1.35-1.86a7.85,7.85,0,0,0-2.48-1.66A8.41,8.41,0,0,0,9.79,12.62Z"/><path class="cls-2" d="M43.55,14.56A4.11,4.11,0,0,0,42,13.11a4.72,4.72,0,0,0-2.19-.49,6.23,6.23,0,0,0-3.56,1.08,10.21,10.21,0,0,0-3,3.38A5.56,5.56,0,0,0,32,13.76a3.67,3.67,0,0,0-2.8-1.14,5.82,5.82,0,0,0-3.08.89,9.55,9.55,0,0,0-2.75,2.74l.06-1.67a1.61,1.61,0,0,0-.46-1.27,1.87,1.87,0,0,0-1.27-.4h-2.7L16.57,32.52h5.15L23,22.12a13.74,13.74,0,0,1,.81-2.2,8.13,8.13,0,0,1,1-1.66A4.55,4.55,0,0,1,26,17.21a2.55,2.55,0,0,1,1.31-.37,1.2,1.2,0,0,1,1.23.73,5.51,5.51,0,0,1,.1,2.5L27.15,32.52h5.17l1.25-10.57a12.12,12.12,0,0,1,.82-2.14,8.5,8.5,0,0,1,1-1.61,4.33,4.33,0,0,1,1.17-1,2.56,2.56,0,0,1,1.28-.35,1.24,1.24,0,0,1,1.24.73,5.06,5.06,0,0,1,.1,2.5L37.76,32.52h5.17l1.46-12.45a11.09,11.09,0,0,0,0-3.17A6.06,6.06,0,0,0,43.55,14.56Z"/><path class="cls-3" d="M59.67,12.62a12.66,12.66,0,0,0-9.26,3.94,13.21,13.21,0,0,0-3.24,5.82,13.43,13.43,0,0,0-.44,3.43,10,10,0,0,0,.43,3.09,6.3,6.3,0,0,0,1.17,2.19A4.76,4.76,0,0,0,50,32.37a5.1,5.1,0,0,0,2.06.43,5.89,5.89,0,0,0,3.41-1.06,10.89,10.89,0,0,0,2.8-2.91l-.08,2a2.77,2.77,0,0,0,.08.66,1.27,1.27,0,0,0,.28.53,1.35,1.35,0,0,0,.53.36,2.23,2.23,0,0,0,.83.13h2.79l2.36-19a13.2,13.2,0,0,0-2.7-.69A18.94,18.94,0,0,0,59.67,12.62ZM58.89,22A20.93,20.93,0,0,1,58,24.58a12.31,12.31,0,0,1-1.12,2.1,5.77,5.77,0,0,1-1.3,1.41,2.34,2.34,0,0,1-1.4.51,1.86,1.86,0,0,1-1.6-.88A5.17,5.17,0,0,1,52,24.86a10.26,10.26,0,0,1,.52-3.29,9.07,9.07,0,0,1,1.44-2.74A6.93,6.93,0,0,1,56.13,17a5.81,5.81,0,0,1,2.79-.68h.34l.34,0Z"/><path class="cls-4" d="M78.62,12.82a4.25,4.25,0,0,0-1.82.63A7.2,7.2,0,0,0,75.07,15a13.48,13.48,0,0,0-1.57,2.34l.08-2.72a1.61,1.61,0,0,0-.46-1.27,1.87,1.87,0,0,0-1.27-.4h-2.7L66.78,32.52h5.15L73,23.74a15.74,15.74,0,0,1,1.16-3.31,6.16,6.16,0,0,1,1.49-2,3.17,3.17,0,0,1,1.81-.76,4.5,4.5,0,0,1,2.1.4l.95-4.92A3.77,3.77,0,0,0,78.62,12.82Z"/><path class="cls-5" d="M85.52,26.93c0-.16,0-.4.09-.7L85.76,25l1-8.15h4.58l.44-3.65H87.2l.74-6H85.13A1.11,1.11,0,0,0,84,8.08l-1.62,5.07a26.18,26.18,0,0,0-.72,3.69l-1,8.44q-.11.93-.18,1.51c0,.39-.08.7-.1.93s0,.41,0,.53v.31a4.43,4.43,0,0,0,1.34,3.24A4.86,4.86,0,0,0,85.06,33a8.31,8.31,0,0,0,2.64-.44,8.09,8.09,0,0,0,2.41-1.29L89,28.73a1.14,1.14,0,0,0-.23-.35.53.53,0,0,0-.36-.1.65.65,0,0,0-.32.09l-.33.19a2.44,2.44,0,0,1-.43.19,1.8,1.8,0,0,1-.59.09,1.09,1.09,0,0,1-.91-.39,1.67,1.67,0,0,1-.3-1.05v-.12C85.49,27.2,85.5,27.09,85.52,26.93Z"/><path class="cls-6" d="M101.37,27.6a3.08,3.08,0,0,0-1-.65,3,3,0,0,0-1.18-.24A3.06,3.06,0,0,0,98,27a2.94,2.94,0,0,0-1,.65,3.09,3.09,0,0,0,0,4.31,2.81,2.81,0,0,0,1,.64,3.17,3.17,0,0,0,1.21.23,3.06,3.06,0,0,0,1.18-.23,2.94,2.94,0,0,0,1-.64,3,3,0,0,0,.64-1,3.17,3.17,0,0,0,0-2.39A3,3,0,0,0,101.37,27.6Z"/><path class="cls-6" d="M113.57,16.36a4.12,4.12,0,0,1,1.32.19,8,8,0,0,1,1,.41l.79.41a1.48,1.48,0,0,0,.71.19,1,1,0,0,0,.54-.14,1.76,1.76,0,0,0,.45-.47l1.35-1.86a7.85,7.85,0,0,0-2.48-1.66,8.41,8.41,0,0,0-3.41-.66,8.68,8.68,0,0,0-3.32.59,7.22,7.22,0,0,0-2.4,1.56,6.61,6.61,0,0,0-1.47,2.21,6.81,6.81,0,0,0-.5,2.57,4.33,4.33,0,0,0,.55,2.34,4.7,4.7,0,0,0,1.38,1.43,7.48,7.48,0,0,0,1.8.87q1,.32,1.8.66a5.37,5.37,0,0,1,1.38.8,1.58,1.58,0,0,1,.55,1.29,2.18,2.18,0,0,1-.18.87,2,2,0,0,1-.55.73,2.75,2.75,0,0,1-.91.49,3.93,3.93,0,0,1-1.24.18,4,4,0,0,1-1.51-.24,5.86,5.86,0,0,1-1-.51l-.76-.51a1.3,1.3,0,0,0-.76-.24,1.51,1.51,0,0,0-.78.19,1.69,1.69,0,0,0-.55.53l-1.29,2a5.46,5.46,0,0,0,1.07,1,8,8,0,0,0,1.43.77,8.86,8.86,0,0,0,1.67.51A9.08,9.08,0,0,0,110,33a9.64,9.64,0,0,0,3.4-.57A8,8,0,0,0,116,30.86a6.62,6.62,0,0,0,1.64-2.26,6.71,6.71,0,0,0,.57-2.74,4.28,4.28,0,0,0-.55-2.28,4.79,4.79,0,0,0-1.39-1.46,8.43,8.43,0,0,0-1.81-.93q-1-.36-1.8-.71a5.68,5.68,0,0,1-1.39-.8,1.45,1.45,0,0,1-.55-1.19,1.94,1.94,0,0,1,.69-1.52A3.15,3.15,0,0,1,113.57,16.36Z"/><rect class="cls-7" x="104.05" y="4.5" width="59.11" height="31.19"/><polygon class="cls-6" points="140.9 4.33 137.46 32.67 142.61 32.67 146.07 4.33 140.9 4.33"/><path class="cls-6" d="M131.9,12.77a12.66,12.66,0,0,0-9.26,3.94,13.21,13.21,0,0,0-3.24,5.82A13.43,13.43,0,0,0,119,26a10,10,0,0,0,.43,3.09,6.3,6.3,0,0,0,1.17,2.19,4.76,4.76,0,0,0,1.72,1.29,5.1,5.1,0,0,0,2.06.43,5.89,5.89,0,0,0,3.41-1.06,10.89,10.89,0,0,0,2.8-2.91l-.08,2a2.76,2.76,0,0,0,.08.66,1.27,1.27,0,0,0,.28.53,1.35,1.35,0,0,0,.53.36,2.23,2.23,0,0,0,.83.13H135l2.36-19a13.2,13.2,0,0,0-2.7-.69A18.94,18.94,0,0,0,131.9,12.77Zm-.78,9.39a20.92,20.92,0,0,1-.89,2.58,12.29,12.29,0,0,1-1.12,2.1,5.77,5.77,0,0,1-1.3,1.41,2.34,2.34,0,0,1-1.4.51,1.86,1.86,0,0,1-1.6-.88A5.17,5.17,0,0,1,124.2,25a10.26,10.26,0,0,1,.52-3.29A9.08,9.08,0,0,1,126.17,19a6.93,6.93,0,0,1,2.19-1.86,5.81,5.81,0,0,1,2.79-.68h.34l.34,0Z"/><path class="cls-6" d="M156.08,23.61a12.9,12.9,0,0,0,3.61-1.48,5,5,0,0,0,1.86-2,5.47,5.47,0,0,0,.53-2.41,4.1,4.1,0,0,0-.41-1.75,4.92,4.92,0,0,0-1.21-1.59,6.23,6.23,0,0,0-2-1.16,7.72,7.72,0,0,0-2.73-.45,9.53,9.53,0,0,0-3,.46,10,10,0,0,0-2.57,1.26,10.24,10.24,0,0,0-2.1,1.92,12.09,12.09,0,0,0-1.57,2.44,13.23,13.23,0,0,0-1,2.81,13.48,13.48,0,0,0-.34,3,9.62,9.62,0,0,0,.56,3.37,7.48,7.48,0,0,0,1.58,2.58,7,7,0,0,0,2.44,1.66,8.19,8.19,0,0,0,3.15.59,12.85,12.85,0,0,0,2.51-.23,9.7,9.7,0,0,0,2.19-.71,11.06,11.06,0,0,0,2-1.22,19.16,19.16,0,0,0,2-1.76l-1.33-1.6a1.54,1.54,0,0,0-.43-.33,1.07,1.07,0,0,0-.5-.12,1.88,1.88,0,0,0-1.07.31l-1,.68a7.31,7.31,0,0,1-1.32.68,5.33,5.33,0,0,1-2,.31q-3.67,0-3.67-4.35v-.06A36.12,36.12,0,0,0,156.08,23.61Zm-4.6-4.34a6.59,6.59,0,0,1,1.05-1.53,4.45,4.45,0,0,1,1.34-1,3.64,3.64,0,0,1,1.58-.35,2.32,2.32,0,0,1,.86.14,1.8,1.8,0,0,1,.59.36,1.45,1.45,0,0,1,.34.49,1.4,1.4,0,0,1,.11.54,2,2,0,0,1-1.19,1.91,8.75,8.75,0,0,1-2,.76,29.81,29.81,0,0,1-3.41.65A9.76,9.76,0,0,1,151.48,19.27Z"/><path class="cls-8" d="M131.16,16.44a5.81,5.81,0,0,0-2.79.68A6.93,6.93,0,0,0,126.17,19a9.08,9.08,0,0,0-1.44,2.74A10.26,10.26,0,0,0,124.2,25a5.17,5.17,0,0,0,.61,2.86,1.86,1.86,0,0,0,1.6.88,2.34,2.34,0,0,0,1.4-.51,5.77,5.77,0,0,0,1.3-1.41,12.28,12.28,0,0,0,1.12-2.1,20.93,20.93,0,0,0,.89-2.58l.72-5.7-.34,0Z"/><path class="cls-9" d="M156.16,19.85a2,2,0,0,0,1.19-1.91,1.4,1.4,0,0,0-.11-.54,1.44,1.44,0,0,0-.34-.49,1.8,1.8,0,0,0-.59-.36,2.32,2.32,0,0,0-.86-.14,3.64,3.64,0,0,0-1.58.35,4.45,4.45,0,0,0-1.34,1,6.59,6.59,0,0,0-1.05,1.53,9.76,9.76,0,0,0-.74,2,29.82,29.82,0,0,0,3.41-.65A8.75,8.75,0,0,0,156.16,19.85Z"/><path class="cls-10" d="M163,0h-62.4a6.13,6.13,0,0,0-6.15,5.15l-2.8,26.69c-.3,2.85,2,5.15,5.07,5.15h62.4a6.13,6.13,0,0,0,6.15-5.15l2.8-26.69C168.39,2.31,166.12,0,163,0ZM102,31a3,3,0,0,1-.64,1,2.94,2.94,0,0,1-1,.64,3.06,3.06,0,0,1-1.18.23A3.17,3.17,0,0,1,98,32.55a2.81,2.81,0,0,1-1-.64,3.11,3.11,0,0,1,0-4.31A2.93,2.93,0,0,1,98,27a3.06,3.06,0,0,1,1.21-.24,3,3,0,0,1,1.18.24,3.08,3.08,0,0,1,1,.65,3,3,0,0,1,.64,1A3.17,3.17,0,0,1,102,31Zm9.29-11.28a5.68,5.68,0,0,0,1.39.8q.84.35,1.8.71a8.43,8.43,0,0,1,1.81.93,4.79,4.79,0,0,1,1.39,1.46,4.28,4.28,0,0,1,.55,2.28,6.71,6.71,0,0,1-.57,2.74A6.63,6.63,0,0,1,116,30.86a8,8,0,0,1-2.59,1.54A9.64,9.64,0,0,1,110,33a9.08,9.08,0,0,1-1.81-.18,8.85,8.85,0,0,1-1.67-.51,8,8,0,0,1-1.43-.77,5.46,5.46,0,0,1-1.07-1l1.29-2a1.69,1.69,0,0,1,.55-.53,1.51,1.51,0,0,1,.78-.19,1.3,1.3,0,0,1,.76.24l.76.51a5.85,5.85,0,0,0,1,.51,4,4,0,0,0,1.51.24,3.93,3.93,0,0,0,1.24-.18,2.75,2.75,0,0,0,.91-.49,2,2,0,0,0,.55-.73,2.18,2.18,0,0,0,.18-.87,1.58,1.58,0,0,0-.55-1.29,5.37,5.37,0,0,0-1.38-.8q-.83-.34-1.8-.66a7.48,7.48,0,0,1-1.8-.87A4.7,4.7,0,0,1,106.69,22a4.33,4.33,0,0,1-.55-2.34,6.81,6.81,0,0,1,.5-2.57,6.61,6.61,0,0,1,1.47-2.21,7.22,7.22,0,0,1,2.4-1.56,8.68,8.68,0,0,1,3.32-.59,8.41,8.41,0,0,1,3.41.66,7.85,7.85,0,0,1,2.48,1.66L118.37,17a1.76,1.76,0,0,1-.45.47,1,1,0,0,1-.54.14,1.48,1.48,0,0,1-.71-.19l-.79-.41a8,8,0,0,0-1-.41,4.12,4.12,0,0,0-1.32-.19,3.15,3.15,0,0,0-2.12.61,1.94,1.94,0,0,0-.69,1.52A1.45,1.45,0,0,0,111.31,19.68Zm23.67,13h-2.79a2.23,2.23,0,0,1-.83-.13,1.35,1.35,0,0,1-.53-.36,1.27,1.27,0,0,1-.28-.53,2.76,2.76,0,0,1-.08-.66l.08-2a10.89,10.89,0,0,1-2.8,2.91A5.89,5.89,0,0,1,124.33,33a5.1,5.1,0,0,1-2.06-.43,4.76,4.76,0,0,1-1.72-1.29A6.3,6.3,0,0,1,119.38,29,10,10,0,0,1,119,26a13.43,13.43,0,0,1,1.69-6.56,13.26,13.26,0,0,1,2-2.69,12.69,12.69,0,0,1,9.26-3.94,18.93,18.93,0,0,1,2.74.2,13.2,13.2,0,0,1,2.7.69Zm2.48,0L140.9,4.33h5.17l-3.46,28.33ZM154,29a5.33,5.33,0,0,0,2-.31,7.31,7.31,0,0,0,1.32-.68l1-.68a1.88,1.88,0,0,1,1.07-.31,1.07,1.07,0,0,1,.5.12,1.54,1.54,0,0,1,.43.33l1.33,1.6a19.17,19.17,0,0,1-2,1.76,11.06,11.06,0,0,1-2,1.22,9.7,9.7,0,0,1-2.19.71,12.84,12.84,0,0,1-2.51.23,8.19,8.19,0,0,1-3.15-.59,7,7,0,0,1-2.44-1.66,7.48,7.48,0,0,1-1.58-2.58,9.62,9.62,0,0,1-.56-3.37,13.48,13.48,0,0,1,.34-3,13.23,13.23,0,0,1,1-2.81,12.09,12.09,0,0,1,1.57-2.44,10.23,10.23,0,0,1,2.1-1.92,10,10,0,0,1,2.57-1.26,9.53,9.53,0,0,1,3-.46,7.72,7.72,0,0,1,2.73.45,6.24,6.24,0,0,1,2,1.16A4.92,4.92,0,0,1,161.67,16a4.1,4.1,0,0,1,.41,1.75,5.47,5.47,0,0,1-.53,2.41,5,5,0,0,1-1.86,2,12.9,12.9,0,0,1-3.61,1.48,36.12,36.12,0,0,1-5.76,1v.06Q150.32,29,154,29Z"/><path class="cls-1" d="M9.79,12.62a8.68,8.68,0,0,0-3.32.59,7.22,7.22,0,0,0-2.4,1.56A6.61,6.61,0,0,0,2.59,17a6.81,6.81,0,0,0-.5,2.57,4.33,4.33,0,0,0,.55,2.34A4.7,4.7,0,0,0,4,23.32a7.49,7.49,0,0,0,1.8.87q1,.32,1.8.66a5.37,5.37,0,0,1,1.38.8,1.58,1.58,0,0,1,.55,1.29,2.18,2.18,0,0,1-.18.87,2,2,0,0,1-.55.73A2.75,2.75,0,0,1,7.9,29a3.93,3.93,0,0,1-1.24.18A4,4,0,0,1,5.14,29a5.87,5.87,0,0,1-1-.51L3.38,28a1.3,1.3,0,0,0-.76-.24,1.51,1.51,0,0,0-.78.19,1.69,1.69,0,0,0-.55.53L0,30.41a5.47,5.47,0,0,0,1.07,1,8,8,0,0,0,1.43.77,8.86,8.86,0,0,0,1.67.51A9.08,9.08,0,0,0,6,32.82a9.64,9.64,0,0,0,3.4-.57A8,8,0,0,0,12,30.71a6.63,6.63,0,0,0,1.64-2.26,6.71,6.71,0,0,0,.57-2.74,4.28,4.28,0,0,0-.55-2.28A4.79,4.79,0,0,0,12.26,22,8.43,8.43,0,0,0,10.45,21q-1-.36-1.8-.71a5.68,5.68,0,0,1-1.39-.8,1.45,1.45,0,0,1-.55-1.19,1.94,1.94,0,0,1,.69-1.52,3.15,3.15,0,0,1,2.12-.61,4.12,4.12,0,0,1,1.32.19,8,8,0,0,1,1,.41l.79.41a1.48,1.48,0,0,0,.71.19,1,1,0,0,0,.54-.14,1.76,1.76,0,0,0,.45-.47l1.35-1.86a7.85,7.85,0,0,0-2.48-1.66A8.41,8.41,0,0,0,9.79,12.62Z"/><path class="cls-2" d="M43.55,14.56A4.11,4.11,0,0,0,42,13.11a4.72,4.72,0,0,0-2.19-.49,6.23,6.23,0,0,0-3.56,1.08,10.21,10.21,0,0,0-3,3.38A5.56,5.56,0,0,0,32,13.76a3.67,3.67,0,0,0-2.8-1.14,5.82,5.82,0,0,0-3.08.89,9.55,9.55,0,0,0-2.75,2.74l.06-1.67a1.61,1.61,0,0,0-.46-1.27,1.87,1.87,0,0,0-1.27-.4h-2.7L16.57,32.52h5.15L23,22.12a13.74,13.74,0,0,1,.81-2.2,8.13,8.13,0,0,1,1-1.66A4.55,4.55,0,0,1,26,17.21a2.55,2.55,0,0,1,1.31-.37,1.2,1.2,0,0,1,1.23.73,5.51,5.51,0,0,1,.1,2.5L27.15,32.52h5.17l1.25-10.57a12.12,12.12,0,0,1,.82-2.14,8.5,8.5,0,0,1,1-1.61,4.33,4.33,0,0,1,1.17-1,2.56,2.56,0,0,1,1.28-.35,1.24,1.24,0,0,1,1.24.73,5.06,5.06,0,0,1,.1,2.5L37.76,32.52h5.17l1.46-12.45a11.09,11.09,0,0,0,0-3.17A6.06,6.06,0,0,0,43.55,14.56Z"/><path class="cls-3" d="M59.67,12.62a12.66,12.66,0,0,0-9.26,3.94,13.21,13.21,0,0,0-3.24,5.82,13.43,13.43,0,0,0-.44,3.43,10,10,0,0,0,.43,3.09,6.3,6.3,0,0,0,1.17,2.19A4.76,4.76,0,0,0,50,32.37a5.1,5.1,0,0,0,2.06.43,5.89,5.89,0,0,0,3.41-1.06,10.89,10.89,0,0,0,2.8-2.91l-.08,2a2.77,2.77,0,0,0,.08.66,1.27,1.27,0,0,0,.28.53,1.35,1.35,0,0,0,.53.36,2.23,2.23,0,0,0,.83.13h2.79l2.36-19a13.2,13.2,0,0,0-2.7-.69A18.94,18.94,0,0,0,59.67,12.62ZM58.89,22A20.93,20.93,0,0,1,58,24.58a12.31,12.31,0,0,1-1.12,2.1,5.77,5.77,0,0,1-1.3,1.41,2.34,2.34,0,0,1-1.4.51,1.86,1.86,0,0,1-1.6-.88A5.17,5.17,0,0,1,52,24.86a10.26,10.26,0,0,1,.52-3.29,9.07,9.07,0,0,1,1.44-2.74A6.93,6.93,0,0,1,56.13,17a5.81,5.81,0,0,1,2.79-.68h.34l.34,0Z"/><path class="cls-4" d="M78.62,12.82a4.25,4.25,0,0,0-1.82.63A7.2,7.2,0,0,0,75.07,15a13.48,13.48,0,0,0-1.57,2.34l.08-2.72a1.61,1.61,0,0,0-.46-1.27,1.87,1.87,0,0,0-1.27-.4h-2.7L66.78,32.52h5.15L73,23.74a15.74,15.74,0,0,1,1.16-3.31,6.16,6.16,0,0,1,1.49-2,3.17,3.17,0,0,1,1.81-.76,4.5,4.5,0,0,1,2.1.4l.95-4.92A3.77,3.77,0,0,0,78.62,12.82Z"/><path class="cls-5" d="M85.52,26.93c0-.16,0-.4.09-.7L85.76,25l1-8.15h4.58l.44-3.65H87.2l.74-6H85.13A1.11,1.11,0,0,0,84,8.08l-1.62,5.07a26.18,26.18,0,0,0-.72,3.69l-1,8.44q-.11.93-.18,1.51c0,.39-.08.7-.1.93s0,.41,0,.53v.31a4.43,4.43,0,0,0,1.34,3.24A4.86,4.86,0,0,0,85.06,33a8.31,8.31,0,0,0,2.64-.44,8.09,8.09,0,0,0,2.41-1.29L89,28.73a1.14,1.14,0,0,0-.23-.35.53.53,0,0,0-.36-.1.65.65,0,0,0-.32.09l-.33.19a2.44,2.44,0,0,1-.43.19,1.8,1.8,0,0,1-.59.09,1.09,1.09,0,0,1-.91-.39,1.67,1.67,0,0,1-.3-1.05v-.12C85.49,27.2,85.5,27.09,85.52,26.93Z"/><path class="cls-6" d="M101.37,27.6a3.08,3.08,0,0,0-1-.65,3,3,0,0,0-1.18-.24A3.06,3.06,0,0,0,98,27a2.94,2.94,0,0,0-1,.65,3.09,3.09,0,0,0,0,4.31,2.81,2.81,0,0,0,1,.64,3.17,3.17,0,0,0,1.21.23,3.06,3.06,0,0,0,1.18-.23,2.94,2.94,0,0,0,1-.64,3,3,0,0,0,.64-1,3.17,3.17,0,0,0,0-2.39A3,3,0,0,0,101.37,27.6Z"/><path class="cls-6" d="M113.57,16.36a4.12,4.12,0,0,1,1.32.19,8,8,0,0,1,1,.41l.79.41a1.48,1.48,0,0,0,.71.19,1,1,0,0,0,.54-.14,1.76,1.76,0,0,0,.45-.47l1.35-1.86a7.85,7.85,0,0,0-2.48-1.66,8.41,8.41,0,0,0-3.41-.66,8.68,8.68,0,0,0-3.32.59,7.22,7.22,0,0,0-2.4,1.56,6.61,6.61,0,0,0-1.47,2.21,6.81,6.81,0,0,0-.5,2.57,4.33,4.33,0,0,0,.55,2.34,4.7,4.7,0,0,0,1.38,1.43,7.48,7.48,0,0,0,1.8.87q1,.32,1.8.66a5.37,5.37,0,0,1,1.38.8,1.58,1.58,0,0,1,.55,1.29,2.18,2.18,0,0,1-.18.87,2,2,0,0,1-.55.73,2.75,2.75,0,0,1-.91.49,3.93,3.93,0,0,1-1.24.18,4,4,0,0,1-1.51-.24,5.86,5.86,0,0,1-1-.51l-.76-.51a1.3,1.3,0,0,0-.76-.24,1.51,1.51,0,0,0-.78.19,1.69,1.69,0,0,0-.55.53l-1.29,2a5.46,5.46,0,0,0,1.07,1,8,8,0,0,0,1.43.77,8.86,8.86,0,0,0,1.67.51A9.08,9.08,0,0,0,110,33a9.64,9.64,0,0,0,3.4-.57A8,8,0,0,0,116,30.86a6.62,6.62,0,0,0,1.64-2.26,6.71,6.71,0,0,0,.57-2.74,4.28,4.28,0,0,0-.55-2.28,4.79,4.79,0,0,0-1.39-1.46,8.43,8.43,0,0,0-1.81-.93q-1-.36-1.8-.71a5.68,5.68,0,0,1-1.39-.8,1.45,1.45,0,0,1-.55-1.19,1.94,1.94,0,0,1,.69-1.52A3.15,3.15,0,0,1,113.57,16.36Z"/><rect class="cls-7" x="104.05" y="4.5" width="59.11" height="31.19"/><polygon class="cls-6" points="140.9 4.33 137.46 32.67 142.61 32.67 146.07 4.33 140.9 4.33"/><path class="cls-6" d="M131.9,12.77a12.66,12.66,0,0,0-9.26,3.94,13.21,13.21,0,0,0-3.24,5.82A13.43,13.43,0,0,0,119,26a10,10,0,0,0,.43,3.09,6.3,6.3,0,0,0,1.17,2.19,4.76,4.76,0,0,0,1.72,1.29,5.1,5.1,0,0,0,2.06.43,5.89,5.89,0,0,0,3.41-1.06,10.89,10.89,0,0,0,2.8-2.91l-.08,2a2.76,2.76,0,0,0,.08.66,1.27,1.27,0,0,0,.28.53,1.35,1.35,0,0,0,.53.36,2.23,2.23,0,0,0,.83.13H135l2.36-19a13.2,13.2,0,0,0-2.7-.69A18.94,18.94,0,0,0,131.9,12.77Zm-.78,9.39a20.92,20.92,0,0,1-.89,2.58,12.29,12.29,0,0,1-1.12,2.1,5.77,5.77,0,0,1-1.3,1.41,2.34,2.34,0,0,1-1.4.51,1.86,1.86,0,0,1-1.6-.88A5.17,5.17,0,0,1,124.2,25a10.26,10.26,0,0,1,.52-3.29A9.08,9.08,0,0,1,126.17,19a6.93,6.93,0,0,1,2.19-1.86,5.81,5.81,0,0,1,2.79-.68h.34l.34,0Z"/><path class="cls-6" d="M156.08,23.61a12.9,12.9,0,0,0,3.61-1.48,5,5,0,0,0,1.86-2,5.47,5.47,0,0,0,.53-2.41,4.1,4.1,0,0,0-.41-1.75,4.92,4.92,0,0,0-1.21-1.59,6.23,6.23,0,0,0-2-1.16,7.72,7.72,0,0,0-2.73-.45,9.53,9.53,0,0,0-3,.46,10,10,0,0,0-2.57,1.26,10.24,10.24,0,0,0-2.1,1.92,12.09,12.09,0,0,0-1.57,2.44,13.23,13.23,0,0,0-1,2.81,13.48,13.48,0,0,0-.34,3,9.62,9.62,0,0,0,.56,3.37,7.48,7.48,0,0,0,1.58,2.58,7,7,0,0,0,2.44,1.66,8.19,8.19,0,0,0,3.15.59,12.85,12.85,0,0,0,2.51-.23,9.7,9.7,0,0,0,2.19-.71,11.06,11.06,0,0,0,2-1.22,19.16,19.16,0,0,0,2-1.76l-1.33-1.6a1.54,1.54,0,0,0-.43-.33,1.07,1.07,0,0,0-.5-.12,1.88,1.88,0,0,0-1.07.31l-1,.68a7.31,7.31,0,0,1-1.32.68,5.33,5.33,0,0,1-2,.31q-3.67,0-3.67-4.35v-.06A36.12,36.12,0,0,0,156.08,23.61Zm-4.6-4.34a6.59,6.59,0,0,1,1.05-1.53,4.45,4.45,0,0,1,1.34-1,3.64,3.64,0,0,1,1.58-.35,2.32,2.32,0,0,1,.86.14,1.8,1.8,0,0,1,.59.36,1.45,1.45,0,0,1,.34.49,1.4,1.4,0,0,1,.11.54,2,2,0,0,1-1.19,1.91,8.75,8.75,0,0,1-2,.76,29.81,29.81,0,0,1-3.41.65A9.76,9.76,0,0,1,151.48,19.27Z"/><path class="cls-8" d="M131.16,16.44a5.81,5.81,0,0,0-2.79.68A6.93,6.93,0,0,0,126.17,19a9.08,9.08,0,0,0-1.44,2.74A10.26,10.26,0,0,0,124.2,25a5.17,5.17,0,0,0,.61,2.86,1.86,1.86,0,0,0,1.6.88,2.34,2.34,0,0,0,1.4-.51,5.77,5.77,0,0,0,1.3-1.41,12.28,12.28,0,0,0,1.12-2.1,20.93,20.93,0,0,0,.89-2.58l.72-5.7-.34,0Z"/><path class="cls-9" d="M156.16,19.85a2,2,0,0,0,1.19-1.91,1.4,1.4,0,0,0-.11-.54,1.44,1.44,0,0,0-.34-.49,1.8,1.8,0,0,0-.59-.36,2.32,2.32,0,0,0-.86-.14,3.64,3.64,0,0,0-1.58.35,4.45,4.45,0,0,0-1.34,1,6.59,6.59,0,0,0-1.05,1.53,9.76,9.76,0,0,0-.74,2,29.82,29.82,0,0,0,3.41-.65A8.75,8.75,0,0,0,156.16,19.85Z"/><path class="cls-10" d="M163,0h-62.4a6.13,6.13,0,0,0-6.15,5.15l-2.8,26.69c-.3,2.85,2,5.15,5.07,5.15h62.4a6.13,6.13,0,0,0,6.15-5.15l2.8-26.69C168.39,2.31,166.12,0,163,0ZM102,31a3,3,0,0,1-.64,1,2.94,2.94,0,0,1-1,.64,3.06,3.06,0,0,1-1.18.23A3.17,3.17,0,0,1,98,32.55a2.81,2.81,0,0,1-1-.64,3.11,3.11,0,0,1,0-4.31A2.93,2.93,0,0,1,98,27a3.06,3.06,0,0,1,1.21-.24,3,3,0,0,1,1.18.24,3.08,3.08,0,0,1,1,.65,3,3,0,0,1,.64,1A3.17,3.17,0,0,1,102,31Zm9.29-11.28a5.68,5.68,0,0,0,1.39.8q.84.35,1.8.71a8.43,8.43,0,0,1,1.81.93,4.79,4.79,0,0,1,1.39,1.46,4.28,4.28,0,0,1,.55,2.28,6.71,6.71,0,0,1-.57,2.74A6.63,6.63,0,0,1,116,30.86a8,8,0,0,1-2.59,1.54A9.64,9.64,0,0,1,110,33a9.08,9.08,0,0,1-1.81-.18,8.85,8.85,0,0,1-1.67-.51,8,8,0,0,1-1.43-.77,5.46,5.46,0,0,1-1.07-1l1.29-2a1.69,1.69,0,0,1,.55-.53,1.51,1.51,0,0,1,.78-.19,1.3,1.3,0,0,1,.76.24l.76.51a5.85,5.85,0,0,0,1,.51,4,4,0,0,0,1.51.24,3.93,3.93,0,0,0,1.24-.18,2.75,2.75,0,0,0,.91-.49,2,2,0,0,0,.55-.73,2.18,2.18,0,0,0,.18-.87,1.58,1.58,0,0,0-.55-1.29,5.37,5.37,0,0,0-1.38-.8q-.83-.34-1.8-.66a7.48,7.48,0,0,1-1.8-.87A4.7,4.7,0,0,1,106.69,22a4.33,4.33,0,0,1-.55-2.34,6.81,6.81,0,0,1,.5-2.57,6.61,6.61,0,0,1,1.47-2.21,7.22,7.22,0,0,1,2.4-1.56,8.68,8.68,0,0,1,3.32-.59,8.41,8.41,0,0,1,3.41.66,7.85,7.85,0,0,1,2.48,1.66L118.37,17a1.76,1.76,0,0,1-.45.47,1,1,0,0,1-.54.14,1.48,1.48,0,0,1-.71-.19l-.79-.41a8,8,0,0,0-1-.41,4.12,4.12,0,0,0-1.32-.19,3.15,3.15,0,0,0-2.12.61,1.94,1.94,0,0,0-.69,1.52A1.45,1.45,0,0,0,111.31,19.68Zm23.67,13h-2.79a2.23,2.23,0,0,1-.83-.13,1.35,1.35,0,0,1-.53-.36,1.27,1.27,0,0,1-.28-.53,2.76,2.76,0,0,1-.08-.66l.08-2a10.89,10.89,0,0,1-2.8,2.91A5.89,5.89,0,0,1,124.33,33a5.1,5.1,0,0,1-2.06-.43,4.76,4.76,0,0,1-1.72-1.29A6.3,6.3,0,0,1,119.38,29,10,10,0,0,1,119,26a13.43,13.43,0,0,1,1.69-6.56,13.26,13.26,0,0,1,2-2.69,12.69,12.69,0,0,1,9.26-3.94,18.93,18.93,0,0,1,2.74.2,13.2,13.2,0,0,1,2.7.69Zm2.48,0L140.9,4.33h5.17l-3.46,28.33ZM154,29a5.33,5.33,0,0,0,2-.31,7.31,7.31,0,0,0,1.32-.68l1-.68a1.88,1.88,0,0,1,1.07-.31,1.07,1.07,0,0,1,.5.12,1.54,1.54,0,0,1,.43.33l1.33,1.6a19.17,19.17,0,0,1-2,1.76,11.06,11.06,0,0,1-2,1.22,9.7,9.7,0,0,1-2.19.71,12.84,12.84,0,0,1-2.51.23,8.19,8.19,0,0,1-3.15-.59,7,7,0,0,1-2.44-1.66,7.48,7.48,0,0,1-1.58-2.58,9.62,9.62,0,0,1-.56-3.37,13.48,13.48,0,0,1,.34-3,13.23,13.23,0,0,1,1-2.81,12.09,12.09,0,0,1,1.57-2.44,10.23,10.23,0,0,1,2.1-1.92,10,10,0,0,1,2.57-1.26,9.53,9.53,0,0,1,3-.46,7.72,7.72,0,0,1,2.73.45,6.24,6.24,0,0,1,2,1.16A4.92,4.92,0,0,1,161.67,16a4.1,4.1,0,0,1,.41,1.75,5.47,5.47,0,0,1-.53,2.41,5,5,0,0,1-1.86,2,12.9,12.9,0,0,1-3.61,1.48,36.12,36.12,0,0,1-5.76,1v.06Q150.32,29,154,29Z"/></g></g></svg>