<svg xmlns="http://www.w3.org/2000/svg" viewBox="0 0 60 14.08"><defs><style>.cls-1{font-size:9.22px;font-family:AkzidenzGroteskBQ-Medium, Akzidenz-Grotesk BQ;}.cls-1,.cls-3{fill:#f1f3f5;}.cls-2{font-family:AkzidenzGroteskBQ-Light, Akzidenz-Grotesk BQ Light;}.cls-4{fill:#dee2e6;}.cls-5{opacity:0.25;}</style></defs><title>Smart Sale - Logo - Light</title><g id="Layer_2" data-name="Layer 2"><g id="Logo_-_Guides" data-name="Logo - Guides"><text class="cls-1" transform="translate(17.77 9.79)">smart <tspan class="cls-2" x="26.68" y="0">sale</tspan></text><circle class="cls-3" cx="43.34" cy="9.15" r="0.64"/><polygon class="cls-4" points="11.73 2.53 9.56 4.69 14.08 9.2 14.08 4.87 11.73 2.53"/><path class="cls-3" d="M14.08,4.87,10.65,8.3v2.17h2.17L14.08,9.2ZM11.19,9.93a.26.26,0,1,1,.36,0A.26.26,0,0,1,11.19,9.93Z"/><polygon class="cls-4" points="11.55 11.73 9.38 9.56 4.87 14.08 9.2 14.08 11.55 11.73"/><path class="cls-3" d="M9.2,14.08,5.78,10.65H3.61v2.17l1.26,1.26ZM4.15,11.19a.26.26,0,1,1,0,.36A.26.26,0,0,1,4.15,11.19Z"/><polygon class="cls-4" points="2.35 11.55 4.51 9.38 0 4.87 0 9.2 2.35 11.55"/><path class="cls-3" d="M0,9.2,3.43,5.78V3.61H1.26L0,4.87ZM2.89,4.15a.26.26,0,1,1-.36,0A.26.26,0,0,1,2.89,4.15Z"/><polygon class="cls-4" points="2.53 2.35 4.69 4.51 9.2 0 4.87 0 2.53 2.35"/><path class="cls-3" d="M4.87,0,8.3,3.43h2.17V1.26L9.2,0ZM9.93,2.89a.26.26,0,1,1,0-.36A.26.26,0,0,1,9.93,2.89Z"/><polygon class="cls-5" points="4.33 0.55 7.04 2.17 4.87 0 4.33 0.55"/><polygon class="cls-5" points="13.54 4.33 11.91 7.04 14.08 4.87 13.54 4.33"/><polygon class="cls-5" points="7.04 11.91 9.93 13.36 9.2 14.08 7.04 11.91"/><polygon class="cls-5" points="2.17 7.04 0.54 9.75 0 9.2 2.17 7.04"/></g></g></svg>